<mxfile>
    <diagram id="XcmecZqmfIg-S9PDwpcb" name="Page-1">
        <mxGraphModel dx="1924" dy="2107" grid="1" gridSize="10" guides="1" tooltips="1" connect="1" arrows="1" fold="1" page="1" pageScale="1" pageWidth="827" pageHeight="1169" math="0" shadow="0">
            <root>
                <mxCell id="0"/>
                <mxCell id="1" parent="0"/>
                <mxCell id="87" value="" style="rounded=1;whiteSpace=wrap;html=1;dashed=1;fontSize=14;" vertex="1" parent="1">
                    <mxGeometry x="-30" y="-120" width="460" height="710" as="geometry"/>
                </mxCell>
                <mxCell id="96" value="" style="rounded=1;whiteSpace=wrap;html=1;dashed=1;fontSize=40;fillColor=none;" vertex="1" parent="1">
                    <mxGeometry x="-350" y="50" width="770" height="530" as="geometry"/>
                </mxCell>
                <mxCell id="89" value="" style="rounded=1;whiteSpace=wrap;html=1;dashed=1;fontSize=14;" vertex="1" parent="1">
                    <mxGeometry x="821" y="-120" width="390" height="710" as="geometry"/>
                </mxCell>
                <mxCell id="88" value="" style="rounded=1;whiteSpace=wrap;html=1;dashed=1;fontSize=14;" vertex="1" parent="1">
                    <mxGeometry x="431" y="-120" width="390" height="710" as="geometry"/>
                </mxCell>
                <mxCell id="79" value="" style="group" vertex="1" connectable="0" parent="1">
                    <mxGeometry y="70" width="400" height="210" as="geometry"/>
                </mxCell>
                <mxCell id="3" value="0" style="whiteSpace=wrap;html=1;aspect=fixed;fontSize=14;" parent="79" vertex="1">
                    <mxGeometry y="130" width="80" height="80" as="geometry"/>
                </mxCell>
                <mxCell id="4" value="0" style="whiteSpace=wrap;html=1;aspect=fixed;fontSize=14;" parent="79" vertex="1">
                    <mxGeometry x="80" y="130" width="80" height="80" as="geometry"/>
                </mxCell>
                <mxCell id="5" value="0" style="whiteSpace=wrap;html=1;aspect=fixed;fontSize=14;" parent="79" vertex="1">
                    <mxGeometry x="160" y="130" width="80" height="80" as="geometry"/>
                </mxCell>
                <mxCell id="6" value="0" style="whiteSpace=wrap;html=1;aspect=fixed;fontSize=14;" parent="79" vertex="1">
                    <mxGeometry x="240" y="130" width="80" height="80" as="geometry"/>
                </mxCell>
                <mxCell id="7" value="0" style="whiteSpace=wrap;html=1;aspect=fixed;fontSize=14;" parent="79" vertex="1">
                    <mxGeometry x="320" y="130" width="80" height="80" as="geometry"/>
                </mxCell>
                <mxCell id="8" value="&lt;font style=&quot;font-size: 18px&quot;&gt;int[] numArr = new int[5]&lt;/font&gt;" style="rounded=1;whiteSpace=wrap;html=1;" parent="79" vertex="1">
                    <mxGeometry x="64" width="272" height="60" as="geometry"/>
                </mxCell>
                <mxCell id="16" value="numArr[0]" style="whiteSpace=wrap;html=1;resizeHeight=0;resizeWidth=0;resizable=1;imageAspect=1;dashed=1;fontSize=14;" parent="79" vertex="1">
                    <mxGeometry y="80" width="80" height="40" as="geometry"/>
                </mxCell>
                <mxCell id="18" value="numArr[1]" style="whiteSpace=wrap;html=1;resizeHeight=0;resizeWidth=0;resizable=1;imageAspect=1;dashed=1;fontSize=14;" vertex="1" parent="79">
                    <mxGeometry x="80" y="80" width="80" height="40" as="geometry"/>
                </mxCell>
                <mxCell id="19" value="numArr[2]" style="whiteSpace=wrap;html=1;resizeHeight=0;resizeWidth=0;resizable=1;imageAspect=1;dashed=1;fontSize=14;" vertex="1" parent="79">
                    <mxGeometry x="160" y="80" width="80" height="40" as="geometry"/>
                </mxCell>
                <mxCell id="20" value="numArr[3]" style="whiteSpace=wrap;html=1;resizeHeight=0;resizeWidth=0;resizable=1;imageAspect=1;dashed=1;fontSize=14;" vertex="1" parent="79">
                    <mxGeometry x="240" y="80" width="80" height="40" as="geometry"/>
                </mxCell>
                <mxCell id="23" value="numArr[4]" style="whiteSpace=wrap;html=1;resizeHeight=0;resizeWidth=0;resizable=1;imageAspect=1;dashed=1;fontSize=14;" vertex="1" parent="79">
                    <mxGeometry x="320" y="80" width="80" height="40" as="geometry"/>
                </mxCell>
                <mxCell id="80" value="" style="group" vertex="1" connectable="0" parent="1">
                    <mxGeometry x="490" y="70" width="272" height="210" as="geometry"/>
                </mxCell>
                <mxCell id="44" value="&lt;font style=&quot;font-size: 18px&quot;&gt;int[] numArr = {1,2,3}&lt;/font&gt;" style="rounded=1;whiteSpace=wrap;html=1;" vertex="1" parent="80">
                    <mxGeometry width="272" height="60" as="geometry"/>
                </mxCell>
                <mxCell id="62" value="" style="group" vertex="1" connectable="0" parent="80">
                    <mxGeometry x="16" y="80" width="240" height="130" as="geometry"/>
                </mxCell>
                <mxCell id="39" value="1" style="whiteSpace=wrap;html=1;aspect=fixed;fontSize=14;" vertex="1" parent="62">
                    <mxGeometry y="50" width="80" height="80" as="geometry"/>
                </mxCell>
                <mxCell id="40" value="2" style="whiteSpace=wrap;html=1;aspect=fixed;fontSize=14;" vertex="1" parent="62">
                    <mxGeometry x="80" y="50" width="80" height="80" as="geometry"/>
                </mxCell>
                <mxCell id="41" value="3" style="whiteSpace=wrap;html=1;aspect=fixed;fontSize=14;" vertex="1" parent="62">
                    <mxGeometry x="160" y="50" width="80" height="80" as="geometry"/>
                </mxCell>
                <mxCell id="45" value="numArr[0]" style="whiteSpace=wrap;html=1;resizeHeight=0;resizeWidth=0;resizable=1;imageAspect=1;dashed=1;fontSize=14;" vertex="1" parent="62">
                    <mxGeometry width="80" height="40" as="geometry"/>
                </mxCell>
                <mxCell id="46" value="numArr[1]" style="whiteSpace=wrap;html=1;resizeHeight=0;resizeWidth=0;resizable=1;imageAspect=1;dashed=1;fontSize=14;" vertex="1" parent="62">
                    <mxGeometry x="80" width="80" height="40" as="geometry"/>
                </mxCell>
                <mxCell id="47" value="numArr[2]" style="whiteSpace=wrap;html=1;resizeHeight=0;resizeWidth=0;resizable=1;imageAspect=1;dashed=1;fontSize=14;" vertex="1" parent="62">
                    <mxGeometry x="160" width="80" height="40" as="geometry"/>
                </mxCell>
                <mxCell id="82" value="" style="group" vertex="1" connectable="0" parent="1">
                    <mxGeometry x="880" y="70" width="272" height="210" as="geometry"/>
                </mxCell>
                <mxCell id="63" value="&lt;font style=&quot;font-size: 18px&quot;&gt;int[] numArr = new int[]{10,40}&lt;/font&gt;" style="rounded=1;whiteSpace=wrap;html=1;" vertex="1" parent="82">
                    <mxGeometry width="272" height="60" as="geometry"/>
                </mxCell>
                <mxCell id="70" value="" style="group" vertex="1" connectable="0" parent="82">
                    <mxGeometry x="12" y="80" width="240" height="130" as="geometry"/>
                </mxCell>
                <mxCell id="78" value="" style="group" vertex="1" connectable="0" parent="70">
                    <mxGeometry x="44" width="160" height="130" as="geometry"/>
                </mxCell>
                <mxCell id="71" value="10" style="whiteSpace=wrap;html=1;aspect=fixed;fontSize=14;" vertex="1" parent="78">
                    <mxGeometry y="50" width="80" height="80" as="geometry"/>
                </mxCell>
                <mxCell id="72" value="40" style="whiteSpace=wrap;html=1;aspect=fixed;fontSize=14;" vertex="1" parent="78">
                    <mxGeometry x="80" y="50" width="80" height="80" as="geometry"/>
                </mxCell>
                <mxCell id="74" value="numArr[0]" style="whiteSpace=wrap;html=1;resizeHeight=0;resizeWidth=0;resizable=1;imageAspect=1;dashed=1;fontSize=14;" vertex="1" parent="78">
                    <mxGeometry width="80" height="40" as="geometry"/>
                </mxCell>
                <mxCell id="75" value="numArr[1]" style="whiteSpace=wrap;html=1;resizeHeight=0;resizeWidth=0;resizable=1;imageAspect=1;dashed=1;fontSize=14;" vertex="1" parent="78">
                    <mxGeometry x="80" width="80" height="40" as="geometry"/>
                </mxCell>
                <mxCell id="83" value="" style="group" vertex="1" connectable="0" parent="1">
                    <mxGeometry x="866" y="340" width="300" height="210" as="geometry"/>
                </mxCell>
                <mxCell id="64" value="&lt;font style=&quot;font-size: 18px&quot;&gt;String[] strArr = new String[]{&quot;a&quot;,&quot;b&quot;}&lt;/font&gt;" style="rounded=1;whiteSpace=wrap;html=1;" vertex="1" parent="83">
                    <mxGeometry width="300" height="60" as="geometry"/>
                </mxCell>
                <mxCell id="65" value="" style="group" vertex="1" connectable="0" parent="83">
                    <mxGeometry x="70" y="80" width="160" height="130" as="geometry"/>
                </mxCell>
                <mxCell id="66" value="a" style="whiteSpace=wrap;html=1;aspect=fixed;fontSize=14;" vertex="1" parent="65">
                    <mxGeometry y="50" width="80" height="80" as="geometry"/>
                </mxCell>
                <mxCell id="67" value="b" style="whiteSpace=wrap;html=1;aspect=fixed;fontSize=14;" vertex="1" parent="65">
                    <mxGeometry x="80" y="50" width="80" height="80" as="geometry"/>
                </mxCell>
                <mxCell id="68" value="strArr[0]" style="whiteSpace=wrap;html=1;resizeHeight=0;resizeWidth=0;resizable=1;imageAspect=1;dashed=1;fontSize=14;" vertex="1" parent="65">
                    <mxGeometry width="80" height="40" as="geometry"/>
                </mxCell>
                <mxCell id="69" value="strArr[1]" style="whiteSpace=wrap;html=1;resizeHeight=0;resizeWidth=0;resizable=1;imageAspect=1;dashed=1;fontSize=14;" vertex="1" parent="65">
                    <mxGeometry x="80" width="80" height="40" as="geometry"/>
                </mxCell>
                <mxCell id="85" value="" style="group" vertex="1" connectable="0" parent="1">
                    <mxGeometry x="490" y="340" width="272" height="210" as="geometry"/>
                </mxCell>
                <mxCell id="60" value="&lt;font style=&quot;font-size: 18px&quot;&gt;String[] strArr = {&quot;사과&quot;,&quot;바나나&quot;}&lt;/font&gt;" style="rounded=1;whiteSpace=wrap;html=1;" vertex="1" parent="85">
                    <mxGeometry width="272" height="60" as="geometry"/>
                </mxCell>
                <mxCell id="61" value="" style="group" vertex="1" connectable="0" parent="85">
                    <mxGeometry x="56" y="80" width="160" height="130" as="geometry"/>
                </mxCell>
                <mxCell id="50" value="사과" style="whiteSpace=wrap;html=1;aspect=fixed;fontSize=14;" vertex="1" parent="61">
                    <mxGeometry y="50" width="80" height="80" as="geometry"/>
                </mxCell>
                <mxCell id="51" value="바나나" style="whiteSpace=wrap;html=1;aspect=fixed;fontSize=14;" vertex="1" parent="61">
                    <mxGeometry x="80" y="50" width="80" height="80" as="geometry"/>
                </mxCell>
                <mxCell id="55" value="strArr[0]" style="whiteSpace=wrap;html=1;resizeHeight=0;resizeWidth=0;resizable=1;imageAspect=1;dashed=1;fontSize=14;" vertex="1" parent="61">
                    <mxGeometry width="80" height="40" as="geometry"/>
                </mxCell>
                <mxCell id="56" value="strArr[1]" style="whiteSpace=wrap;html=1;resizeHeight=0;resizeWidth=0;resizable=1;imageAspect=1;dashed=1;fontSize=14;" vertex="1" parent="61">
                    <mxGeometry x="80" width="80" height="40" as="geometry"/>
                </mxCell>
                <mxCell id="86" value="" style="group" vertex="1" connectable="0" parent="1">
                    <mxGeometry y="340" width="400" height="210" as="geometry"/>
                </mxCell>
                <mxCell id="24" value="null" style="whiteSpace=wrap;html=1;aspect=fixed;fontSize=14;" vertex="1" parent="86">
                    <mxGeometry y="130" width="80" height="80" as="geometry"/>
                </mxCell>
                <mxCell id="25" value="null" style="whiteSpace=wrap;html=1;aspect=fixed;fontSize=14;" vertex="1" parent="86">
                    <mxGeometry x="80" y="130" width="80" height="80" as="geometry"/>
                </mxCell>
                <mxCell id="26" value="&#10;&#10;&lt;span style=&quot;color: rgb(240, 240, 240); font-family: helvetica; font-size: 14px; font-style: normal; font-weight: 400; letter-spacing: normal; text-align: center; text-indent: 0px; text-transform: none; word-spacing: 0px; background-color: rgb(42, 42, 42); display: inline; float: none;&quot;&gt;null&lt;/span&gt;&#10;&#10;" style="whiteSpace=wrap;html=1;aspect=fixed;fontSize=14;" vertex="1" parent="86">
                    <mxGeometry x="160" y="130" width="80" height="80" as="geometry"/>
                </mxCell>
                <mxCell id="27" value="null" style="whiteSpace=wrap;html=1;aspect=fixed;fontSize=14;" vertex="1" parent="86">
                    <mxGeometry x="240" y="130" width="80" height="80" as="geometry"/>
                </mxCell>
                <mxCell id="28" value="null" style="whiteSpace=wrap;html=1;aspect=fixed;fontSize=14;" vertex="1" parent="86">
                    <mxGeometry x="320" y="130" width="80" height="80" as="geometry"/>
                </mxCell>
                <mxCell id="30" value="strArr[0]" style="whiteSpace=wrap;html=1;resizeHeight=0;resizeWidth=0;resizable=1;imageAspect=1;dashed=1;fontSize=14;" vertex="1" parent="86">
                    <mxGeometry y="80" width="80" height="40" as="geometry"/>
                </mxCell>
                <mxCell id="31" value="strArr[1]" style="whiteSpace=wrap;html=1;resizeHeight=0;resizeWidth=0;resizable=1;imageAspect=1;dashed=1;fontSize=14;" vertex="1" parent="86">
                    <mxGeometry x="80" y="80" width="80" height="40" as="geometry"/>
                </mxCell>
                <mxCell id="32" value="strArr[2]" style="whiteSpace=wrap;html=1;resizeHeight=0;resizeWidth=0;resizable=1;imageAspect=1;dashed=1;fontSize=14;" vertex="1" parent="86">
                    <mxGeometry x="160" y="80" width="80" height="40" as="geometry"/>
                </mxCell>
                <mxCell id="33" value="strArr[3]" style="whiteSpace=wrap;html=1;resizeHeight=0;resizeWidth=0;resizable=1;imageAspect=1;dashed=1;fontSize=14;" vertex="1" parent="86">
                    <mxGeometry x="240" y="80" width="80" height="40" as="geometry"/>
                </mxCell>
                <mxCell id="34" value="strArr[4]" style="whiteSpace=wrap;html=1;resizeHeight=0;resizeWidth=0;resizable=1;imageAspect=1;dashed=1;fontSize=14;" vertex="1" parent="86">
                    <mxGeometry x="320" y="80" width="80" height="40" as="geometry"/>
                </mxCell>
                <mxCell id="35" value="&lt;font style=&quot;font-size: 18px&quot;&gt;String[] strArr = new String[5]&lt;/font&gt;" style="rounded=1;whiteSpace=wrap;html=1;" vertex="1" parent="86">
                    <mxGeometry x="64" width="272" height="60" as="geometry"/>
                </mxCell>
                <mxCell id="91" value="&lt;font style=&quot;font-size: 20px&quot;&gt;데이터 타입[ ] 변수명 = new 데이터타입[배열갯수]&lt;/font&gt;" style="text;html=1;strokeColor=none;fillColor=none;align=center;verticalAlign=middle;whiteSpace=wrap;rounded=0;dashed=1;fontSize=40;" vertex="1" parent="1">
                    <mxGeometry x="-30" y="-70" width="460" height="70" as="geometry"/>
                </mxCell>
                <mxCell id="93" value="&lt;font style=&quot;font-size: 20px&quot;&gt;데이터 타입[ ] 변수명 = {데이터 ,데이터...}&lt;/font&gt;" style="text;html=1;strokeColor=none;fillColor=none;align=center;verticalAlign=middle;whiteSpace=wrap;rounded=0;dashed=1;fontSize=40;" vertex="1" parent="1">
                    <mxGeometry x="431" y="-70" width="389" height="70" as="geometry"/>
                </mxCell>
                <mxCell id="95" value="&lt;font style=&quot;font-size: 20px&quot;&gt;데이터 타입[ ] 변수명 = new 데이터타입[]{데이터 ,데이터,...}&lt;/font&gt;" style="text;html=1;strokeColor=none;fillColor=none;align=center;verticalAlign=middle;whiteSpace=wrap;rounded=0;dashed=1;fontSize=40;" vertex="1" parent="1">
                    <mxGeometry x="821" y="-70" width="389" height="70" as="geometry"/>
                </mxCell>
                <mxCell id="97" value="&lt;h1 style=&quot;font-size: 30px&quot;&gt;초기화&lt;/h1&gt;" style="text;html=1;strokeColor=none;fillColor=none;spacing=5;spacingTop=-20;whiteSpace=wrap;overflow=hidden;rounded=0;dashed=1;fontSize=30;align=center;verticalAlign=middle;" vertex="1" parent="1">
                    <mxGeometry x="-270" y="70" width="190" height="40" as="geometry"/>
                </mxCell>
                <mxCell id="98" value="정수형&lt;br&gt;(byte, short, int, long)&lt;br&gt;0으로 초기화" style="rounded=0;whiteSpace=wrap;html=1;fillColor=none;fontSize=25;align=center;" vertex="1" parent="1">
                    <mxGeometry x="-320" y="140" width="280" height="100" as="geometry"/>
                </mxCell>
                <mxCell id="99" value="실수형&lt;br&gt;(float, double)&lt;br&gt;0.0으로 초기화" style="rounded=0;whiteSpace=wrap;html=1;fillColor=none;fontSize=25;align=center;" vertex="1" parent="1">
                    <mxGeometry x="-320" y="240" width="280" height="100" as="geometry"/>
                </mxCell>
                <mxCell id="100" value="논리형형&lt;br&gt;(boolean)&lt;br&gt;false 로 초기화" style="rounded=0;whiteSpace=wrap;html=1;fillColor=none;fontSize=25;align=center;" vertex="1" parent="1">
                    <mxGeometry x="-320" y="340" width="280" height="100" as="geometry"/>
                </mxCell>
                <mxCell id="101" value="객체형&lt;br&gt;(Object)&lt;br&gt;null로 초기화" style="rounded=0;whiteSpace=wrap;html=1;fillColor=none;fontSize=25;align=center;" vertex="1" parent="1">
                    <mxGeometry x="-320" y="440" width="280" height="100" as="geometry"/>
                </mxCell>
            </root>
        </mxGraphModel>
    </diagram>
</mxfile>